<svg width="28" height="28" viewBox="0 0 28 28" fill="none" xmlns="http://www.w3.org/2000/svg">
<path d="M13.9998 14C14.6415 14 15.191 13.7714 15.6483 13.314C16.1049 12.8575 16.3332 12.3084 16.3332 11.6667C16.3332 11.025 16.1049 10.4755 15.6483 10.0182C15.191 9.56165 14.6415 9.33337 13.9998 9.33337C13.3582 9.33337 12.8091 9.56165 12.3525 10.0182C11.8952 10.4755 11.6665 11.025 11.6665 11.6667C11.6665 12.3084 11.8952 12.8575 12.3525 13.314C12.8091 13.7714 13.3582 14 13.9998 14ZM13.9998 22.575C16.3721 20.3973 18.1318 18.4186 19.279 16.639C20.4262 14.8603 20.9998 13.2806 20.9998 11.9C20.9998 9.7806 20.3239 8.04499 18.9722 6.69321C17.6212 5.34221 15.9637 4.66671 13.9998 4.66671C12.0359 4.66671 10.3781 5.34221 9.02634 6.69321C7.67534 8.04499 6.99984 9.7806 6.99984 11.9C6.99984 13.2806 7.57345 14.8603 8.72067 16.639C9.86789 18.4186 11.6276 20.3973 13.9998 22.575ZM13.9998 25.2292C13.8443 25.2292 13.6887 25.2 13.5332 25.1417C13.3776 25.0834 13.2415 25.0056 13.1248 24.9084C10.2859 22.4 8.1665 20.0718 6.7665 17.9235C5.3665 15.7745 4.6665 13.7667 4.6665 11.9C4.6665 8.98337 5.60489 6.65976 7.48167 4.92921C9.35767 3.19865 11.5304 2.33337 13.9998 2.33337C16.4693 2.33337 18.642 3.19865 20.518 4.92921C22.3948 6.65976 23.3332 8.98337 23.3332 11.9C23.3332 13.7667 22.6332 15.7745 21.2332 17.9235C19.8332 20.0718 17.7137 22.4 14.8748 24.9084C14.7582 25.0056 14.6221 25.0834 14.4665 25.1417C14.3109 25.2 14.1554 25.2292 13.9998 25.2292Z" fill="black"/>
</svg>
