<svg width="41" height="47" viewBox="0 0 41 47" fill="none" xmlns="http://www.w3.org/2000/svg">
<g clip-path="url(#clip0_12_706)">
<path d="M37.5514 11.4458L20.4241 1.67185C20.1878 1.53842 19.8952 1.53842 19.6589 1.67185L2.53153 11.4458C2.29522 11.5792 2.14893 11.8294 2.14893 12.1018V28.8698V28.8754V31.6441C2.14893 31.9165 2.29522 32.1667 2.53153 32.3002L19.6589 42.0685C19.777 42.1352 19.2922 41.8827 19.4217 41.8827C19.5567 41.8827 19.4688 41.6227 19.5869 41.556L28.5692 36.9281L37.5514 32.3002C37.7878 32.1667 37.934 31.9165 37.934 31.6441V12.1018C37.934 11.8294 37.7878 11.5792 37.5514 11.4458ZM15.5796 37.9933L11.0558 35.4136C11.309 35.4247 11.5735 35.4358 11.8435 35.4358C13.2221 35.4358 14.8144 35.2523 16.7274 34.7631C21.4819 33.5455 23.5469 31.6163 25.5387 29.7538C27.4798 27.9414 29.3085 26.2345 33.6803 25.1115C34.6537 24.8613 35.5484 24.6945 36.4036 24.5944V27.5411C35.5878 27.6467 34.7325 27.819 33.8154 28.0526C29.0609 29.2757 27.0016 31.1993 25.0041 33.0618C23.063 34.8743 21.2343 36.5811 16.8625 37.7042C16.4236 37.8154 15.996 37.9099 15.5796 37.9933ZM20.0415 3.20076L36.4036 12.5355V18.6178C35.267 18.7067 34.0742 18.9013 32.7745 19.2349C29.6742 20.0299 27.7218 21.1307 26.1801 22.315C21.887 20.6749 19.1581 20.9862 16.5192 21.292C13.8691 21.5978 11.3709 21.8924 7.18473 20.2078C5.83434 19.663 4.68652 19.0625 3.67936 18.3787V12.541L20.0415 3.20076ZM3.67936 25.0837C4.24764 25.3728 4.85532 25.6508 5.508 25.9121C8.29316 27.0351 10.4313 27.3465 12.2937 27.3465C13.4696 27.3465 14.5387 27.2242 15.5909 27.1018C17.1719 26.9184 18.6911 26.746 20.5423 26.9907C19.3382 27.719 17.8584 28.3695 15.8215 28.8921C11.4497 30.0151 9.00774 29.4036 6.42514 28.7586C5.55301 28.5418 4.65276 28.3194 3.67373 28.1637V25.0837H3.67936ZM22.2696 25.762C19.4957 25.1337 17.4195 25.3617 15.4164 25.5952C12.7719 25.901 10.2681 26.1956 6.09317 24.511C5.19854 24.1497 4.41082 23.7716 3.68499 23.3657V20.18C4.56273 20.7027 5.53051 21.1808 6.61644 21.6144C11.1684 23.4436 13.9873 23.1156 16.7105 22.7987C19.0962 22.5207 21.3637 22.2649 24.8466 23.4436C24.5484 23.7104 24.2614 23.9773 23.9745 24.2497C23.4118 24.7612 22.866 25.2727 22.2696 25.762ZM3.67936 29.6871C4.48959 29.8261 5.2548 30.0207 6.05378 30.2153C7.64611 30.6156 9.26656 31.0214 11.3315 31.0214C12.7157 31.0214 14.3024 30.838 16.2042 30.3487C20.9586 29.1311 23.0236 27.2019 25.0154 25.3394C25.5724 24.8168 26.1295 24.3053 26.7315 23.8105C26.754 23.7994 26.7709 23.7772 26.7878 23.7605C28.2676 22.5596 30.085 21.481 33.1514 20.6915C34.3162 20.3969 35.3796 20.2078 36.3924 20.1244V23.0655C35.4133 23.1656 34.3893 23.3491 33.2865 23.6326C28.532 24.8557 26.4727 26.7794 24.4809 28.6419C22.5397 30.4543 20.7111 32.1612 16.3392 33.2842C12.0067 34.3962 9.55352 33.8013 7.2016 33.2064L3.67936 31.2049V29.6871ZM19.5869 41.556L17.5151 39.0996C22.0783 37.8765 24.1039 35.9918 26.0619 34.1626C28.0031 32.3502 29.8318 30.6434 34.2036 29.5203C34.9857 29.3202 35.7115 29.1756 36.4036 29.07L37.5514 32.3002L28.5692 36.9281L19.5869 41.556Z" fill="#A3D562"/>
</g>
<path d="M39.1638 34.9315L35.7622 37.3653C34.4387 38.3124 32.5984 37.3663 32.5984 35.7388V18.1402C32.5984 17.4571 32.2498 16.8212 31.6738 16.4539L21.0921 9.70588C20.7903 9.51342 20.4398 9.41117 20.0818 9.41117C19.72 9.41117 19.3659 9.51563 19.062 9.71199L8.63104 16.4526C8.06088 16.821 7.71653 17.4535 7.71653 18.1324V29.3054C7.71653 30.0086 8.08587 30.6602 8.68924 31.0214L18.7123 37.0219C19.3157 37.3831 19.685 38.0346 19.685 38.7379V42.6824C19.685 44.2274 18.0078 45.189 16.6745 44.4083L0.989414 35.224C0.376587 34.8652 0 34.2083 0 33.4981V13.2203C0 12.5023 0.384853 11.8394 1.00836 11.4834L18.9092 1.26315C19.2112 1.0907 19.553 1 19.9008 1H20.2594C20.6055 1 20.9456 1.08979 21.2466 1.26059L38.9871 11.3286C39.6132 11.6838 40 12.3481 40 13.068V33.305C40 33.9503 39.6886 34.556 39.1638 34.9315Z" fill="#A3D562" stroke="#A3D562"/>
<defs>
<clipPath id="clip0_12_706">
<rect width="35.7851" height="40.5968" fill="white" transform="translate(2.14893 3.28711)"/>
</clipPath>
</defs>
</svg>
