<svg width="95" height="107" viewBox="0 0 95 107" fill="none" xmlns="http://www.w3.org/2000/svg">
<g clip-path="url(#clip0_12_710)">
<path d="M88.3069 25.2865L48.4859 2.56212C47.9364 2.25189 47.2562 2.25189 46.7067 2.56212L6.88566 25.2865C6.33622 25.5967 5.99609 26.1784 5.99609 26.8118V65.7974V65.8103V72.2476C5.99609 72.881 6.33622 73.4627 6.88566 73.7729L46.7067 96.4844C46.9814 96.6395 45.8543 96.0523 46.1552 96.0523C46.4691 96.0523 46.2648 95.4478 46.5395 95.2927L67.4232 84.5328L88.3069 73.7729C88.8564 73.4627 89.1965 72.881 89.1965 72.2476V26.8118C89.1965 26.1784 88.8564 25.5967 88.3069 25.2865ZM37.2224 87.0094L26.7046 81.0116C27.2933 81.0375 27.9081 81.0633 28.5361 81.0633C31.7411 81.0633 35.4433 80.6368 39.8911 79.4993C50.9452 76.6684 55.7463 72.183 60.3772 67.8527C64.8905 63.6387 69.1421 59.6704 79.3066 57.0593C81.5698 56.4776 83.6498 56.0898 85.6382 55.8571V62.708C83.7414 62.9536 81.7529 63.3543 79.6206 63.8973C68.5665 66.741 63.7785 71.2135 59.1345 75.5438C54.6212 79.7578 50.3696 83.7261 40.2051 86.3372C39.1847 86.5958 38.1905 86.8155 37.2224 87.0094ZM47.5963 6.11684L85.6382 27.82V41.9614C82.9957 42.1682 80.2224 42.6206 77.2005 43.3962C69.9924 45.2446 65.453 47.8041 61.8686 50.5573C51.8871 46.7441 45.5425 47.468 39.4071 48.1789C33.2455 48.8899 27.4372 49.5749 17.7043 45.6583C14.5647 44.3915 11.896 42.9955 9.55435 41.4055V27.833L47.5963 6.11684ZM9.55435 56.9946C10.8756 57.6668 12.2885 58.3131 13.8059 58.9206C20.2814 61.5317 25.2525 62.2556 29.5826 62.2556C32.3167 62.2556 34.8023 61.9712 37.2486 61.6869C40.9246 61.2603 44.4567 60.8596 48.7606 61.4283C45.9611 63.1217 42.5205 64.634 37.7849 65.8491C27.6203 68.4602 21.9428 67.0383 15.9383 65.5389C13.9106 65.0348 11.8175 64.5177 9.54127 64.1558V56.9946H9.55435ZM52.7767 58.5716C46.3274 57.111 41.5002 57.6409 36.843 58.1838C30.6946 58.8948 24.8732 59.5799 15.1665 55.6632C13.0864 54.823 11.255 53.944 9.56743 53.0004V45.5937C11.6082 46.8087 13.8583 47.9204 16.3831 48.9286C26.9663 53.1814 33.5203 52.4187 39.8519 51.6819C45.3985 51.0356 50.6705 50.441 58.7682 53.1814C58.0748 53.8018 57.4077 54.4223 56.7405 55.0557C55.4323 56.2449 54.1634 57.4341 52.7767 58.5716ZM9.55435 67.6976C11.4381 68.0207 13.2173 68.4732 15.0749 68.9256C18.777 69.8563 22.5446 70.7999 27.3456 70.7999C30.5638 70.7999 34.2528 70.3733 38.6745 69.2358C49.7286 66.4049 54.5297 61.9195 59.1606 57.5892C60.4557 56.3742 61.7508 55.1849 63.1506 54.0345C63.2029 54.0087 63.2422 53.957 63.2814 53.9182C66.7219 51.1261 70.9473 48.6184 78.077 46.7829C80.7849 46.0978 83.2574 45.6583 85.6121 45.4644V52.3024C83.3358 52.5351 80.9549 52.9616 78.3909 53.6209C67.3368 56.4646 62.5488 60.9371 57.9179 65.2674C53.4046 69.4814 49.153 73.4498 38.9885 76.0609C28.9154 78.6461 23.2118 77.263 17.7436 75.8799L9.55435 71.2264V67.6976ZM46.5395 95.2927L41.7226 89.5817C52.3319 86.738 57.0414 82.356 61.5938 78.1032C66.1071 73.8893 70.3587 69.9209 80.5232 67.3098C82.3416 66.8444 84.0292 66.5084 85.6382 66.2628L88.3069 73.7729L67.4232 84.5328L46.5395 95.2927Z" fill="white"/>
</g>
<path d="M93.1638 79.0979L79.9551 88.5489C78.6316 89.4959 76.7913 88.5498 76.7913 86.9224V39.3979C76.7913 38.7147 76.4427 38.0789 75.8667 37.7116L49.4565 20.8697C49.1352 20.6648 48.7621 20.556 48.3811 20.556H46.9916C46.6064 20.556 46.2295 20.6672 45.9061 20.8762L19.8555 37.7102C19.2853 38.0787 18.9409 38.7112 18.9409 39.39V68.3122C18.9409 69.0154 19.3103 69.667 19.9136 70.0282L45.795 85.5224C46.3984 85.8836 46.7677 86.5352 46.7677 87.2384V102.534C46.7677 104.079 45.0904 105.041 43.7571 104.26L1.98941 79.8032C1.37659 79.4444 1 78.7875 1 78.0773V27.8736C1 27.1556 1.38486 26.4928 2.00836 26.1368L45.5745 1.26315C45.8766 1.0907 46.2184 1 46.5662 1H48.8027C49.1488 1 49.4889 1.08979 49.7899 1.26059L92.9871 25.7755C93.6132 26.1308 94 26.7951 94 27.5149V77.4714C94 78.1167 93.6886 78.7224 93.1638 79.0979Z" fill="white" stroke="white"/>
<defs>
<clipPath id="clip0_12_710">
<rect width="83.2004" height="94.3876" fill="white" transform="translate(5.99609 6.31765)"/>
</clipPath>
</defs>
</svg>
